HIERARCHY
ROOT Hips
{
	OFFSET 0.00000 0.00000 0.00000
	CHANNELS 6 Xposition Yposition Zposition Zrotation Yrotation Xrotation 
	JOINT LHipJoint
	{
		OFFSET 0 0 0
		CHANNELS 3 Zrotation Yrotation Xrotation
		JOINT LeftUpLeg
		{
			OFFSET 1.41496 -1.84582 0.78394
			CHANNELS 3 Zrotation Yrotation Xrotation
			JOINT LeftLeg
			{
				OFFSET 2.58040 -7.08960 0.00000
				CHANNELS 3 Zrotation Yrotation Xrotation
				JOINT LeftFoot
				{
					OFFSET 2.64719 -7.27309 0.00000
					CHANNELS 3 Zrotation Yrotation Xrotation
					JOINT LeftToeBase
					{
						OFFSET 0.20718 -0.56921 2.20259
						CHANNELS 3 Zrotation Yrotation Xrotation
						End Site
						{
							OFFSET 0.00000 -0.00000 1.14243
						}
					}
				}
			}
		}
	}
	JOINT RHipJoint
	{
		OFFSET 0 0 0
		CHANNELS 3 Zrotation Yrotation Xrotation
		JOINT RightUpLeg
		{
			OFFSET -1.40551 -1.84582 0.78394
			CHANNELS 3 Zrotation Yrotation Xrotation
			JOINT RightLeg
			{
				OFFSET -2.56572 -7.04926 0.00000
				CHANNELS 3 Zrotation Yrotation Xrotation
				JOINT RightFoot
				{
					OFFSET -2.57974 -7.08778 0.00000
					CHANNELS 3 Zrotation Yrotation Xrotation
					JOINT RightToeBase
					{
						OFFSET -0.26704 -0.73369 2.20815
						CHANNELS 3 Zrotation Yrotation Xrotation
						End Site
						{
							OFFSET -0.00000 -0.00000 1.16246
						}
					}
				}
			}
		}
	}
	JOINT LowerBack
	{
		OFFSET 0 0 0
		CHANNELS 3 Zrotation Yrotation Xrotation
		JOINT Spine
		{
			OFFSET -0.04690 2.05196 -0.07017
			CHANNELS 3 Zrotation Yrotation Xrotation
			JOINT Spine1
			{
				OFFSET 0.04085 2.05260 0.00800
				CHANNELS 3 Zrotation Yrotation Xrotation
				JOINT Neck
				{
					OFFSET 0 0 0
					CHANNELS 3 Zrotation Yrotation Xrotation
					JOINT Neck1
					{
						OFFSET -0.03582 1.80995 0.19301
						CHANNELS 3 Zrotation Yrotation Xrotation
						JOINT Head
						{
							OFFSET 0.00952 1.80195 -0.36389
							CHANNELS 3 Zrotation Yrotation Xrotation
							End Site
							{
								OFFSET 0.00392 1.85062 -0.14494
							}
						}
					}
				}
				JOINT LeftShoulder
				{
					OFFSET 0 0 0
					CHANNELS 3 Zrotation Yrotation Xrotation
					JOINT LeftArm
					{
						OFFSET 3.55224 1.39726 -0.13667
						CHANNELS 3 Zrotation Yrotation Xrotation
						JOINT LeftForeArm
						{
							OFFSET 5.14507 -0.00000 -0.00000
							CHANNELS 3 Zrotation Yrotation Xrotation
							JOINT LeftHand
							{
								OFFSET 3.50646 -0.00000 0.00000
								CHANNELS 3 Zrotation Yrotation Xrotation
								JOINT LeftFingerBase
								{
									OFFSET 0 0 0
									CHANNELS 3 Zrotation Yrotation Xrotation
									JOINT LeftHandIndex1
									{
										OFFSET 0.62997 -0.00000 0.00000
										CHANNELS 3 Zrotation Yrotation Xrotation
										End Site
										{
											OFFSET 0.50790 -0.00000 0.00000
										}
									}
								}
								JOINT LThumb
								{
									OFFSET 0 0 0
									CHANNELS 3 Zrotation Yrotation Xrotation
									End Site
									{
										OFFSET 0.51565 -0.00000 0.51565
									}
								}
							}
						}
					}
				}
				JOINT RightShoulder
				{
					OFFSET 0 0 0
					CHANNELS 3 Zrotation Yrotation Xrotation
					JOINT RightArm
					{
						OFFSET -3.06467 1.61290 -0.28813
						CHANNELS 3 Zrotation Yrotation Xrotation
						JOINT RightForeArm
						{
							OFFSET -5.23200 -0.00000 -0.00000
							CHANNELS 3 Zrotation Yrotation Xrotation
							JOINT RightHand
							{
								OFFSET -3.65641 -0.00000 0.00000
								CHANNELS 3 Zrotation Yrotation Xrotation
								JOINT RightFingerBase
								{
									OFFSET 0 0 0
									CHANNELS 3 Zrotation Yrotation Xrotation
									JOINT RightHandIndex1
									{
										OFFSET -0.65681 -0.00000 0.00000
										CHANNELS 3 Zrotation Yrotation Xrotation
										End Site
										{
											OFFSET -0.52953 -0.00000 0.00000
										}
									}
								}
								JOINT RThumb
								{
									OFFSET 0 0 0
									CHANNELS 3 Zrotation Yrotation Xrotation
									End Site
									{
										OFFSET -0.53762 -0.00000 0.53762
									}
								}
							}
						}
					}
				}
			}
		}
	}
}
MOTION
Frames: 8
Frame Time: .0083333
1.8946 17.9104 -4.3305 0 0 0 0 0 0 -21 0 0 0 0 0 0 0 0 0 0 0 0 0 0 21 0 0 0 0 0 0 0 0 0 0 0 0 0 0 0 0 0 0 0 0 0 0 -16 0 0 21 0 0 11 0 0 0 -8 0 0 0 0 0 0 0 0 0 0 0 0 0 0 0 0 0 0 0 0 8 0 0 0 0 0 0 0 0 0 0 0 0 0 0 0 0 0
1.8946 17.9104 -4.3305 1.0934 2.6058 6.1997 0.0000 0.0000 0.0000 -13.0364 -7.6171 -10.8319 2.6655 10.1328 29.4079 0.9000 4.4045 -20.0362 0.2666 -3.3218 -9.1760 0.0000 0.0000 0.0000 8.8996 2.4886 -8.9657 -2.0289 -8.9260 25.5641 -0.5982 -10.9242 -22.3785 -0.0084 -0.5915 1.6254 -3.3613 -0.7183 -2.6369 0.6009 -0.8985 -2.5199 2.4859 -0.3954 -1.0486 -4.9055 -3.7253 -21.8971 4.8322 -4.5721 16.1136 1.8174 -1.9203 8.8643 0.0000 0.0000 0.0000 -16.3246 2.4177 -26.6188 12.5523 -20.6278 -2.2932 -0.0000 -0.0000 20.5442 15.0737 11.9711 3.1974 -7.1250 0.0000 -0.0000 -10.8754 42.1094 0.7858 0.0000 0.0000 0.0000 15.8014 -9.0016 -25.8157 -12.4440 20.4672 -2.2552 0.0000 0.0000 7.9147 -21.9305 -16.7235 6.6085 7.1250 -0.0000 -0.0000 5.7059 -47.8445 -0.4017
1.8975 17.9103 -4.3293 1.0959 2.6146 6.1929 0.0000 0.0000 0.0000 -13.0491 -7.6029 -10.8271 2.6676 10.1364 29.4195 0.9012 4.3792 -20.0323 0.2656 -3.3153 -9.1579 0.0000 0.0000 0.0000 8.8874 2.4666 -8.9502 -2.0267 -8.9214 25.5497 -0.5957 -10.9282 -22.3593 -0.0077 -0.5679 1.5605 -3.3563 -0.7126 -2.6270 0.5940 -0.8915 -2.5214 2.4763 -0.3919 -1.0562 -4.9366 -3.7309 -21.8767 4.8498 -4.5756 16.1357 1.8283 -1.9222 8.8698 -0.0000 0.0000 0.0000 -16.3135 2.3794 -26.7253 12.5345 -20.6013 -2.2869 -0.0000 -0.0000 20.7023 15.0910 11.9802 3.2037 -7.1250 0.0000 -0.0000 -10.8624 42.1204 0.7818 -0.0000 0.0000 0.0000 15.7873 -9.1019 -25.5855 -12.4825 20.5243 -2.2686 0.0000 0.0000 7.6232 -21.9076 -16.9061 6.6703 7.1250 -0.0000 -0.0000 5.7707 -48.0337 -0.4333
1.8994 17.9104 -4.3273 1.1102 2.6052 6.1894 0.0000 0.0000 0.0000 -13.0725 -7.5753 -10.8278 2.6689 10.1388 29.4273 0.9025 4.3675 -20.0376 0.2663 -3.3199 -9.1706 0.0000 0.0000 0.0000 8.8665 2.4660 -8.9336 -2.0247 -8.9173 25.5371 -0.5953 -10.9347 -22.3614 -0.0082 -0.5840 1.6049 -3.3867 -0.7068 -2.6373 0.5930 -0.8827 -2.5087 2.4922 -0.3876 -1.0377 -4.9544 -3.7189 -21.8651 4.8658 -4.5571 16.1246 1.8394 -1.9131 8.8639 0.0000 -0.0000 0.0000 -16.3162 2.3743 -26.8057 12.5260 -20.5888 -2.2839 -0.0000 -0.0000 20.8003 15.1221 12.0170 3.2203 -7.1250 0.0000 -0.0000 -10.8432 42.1606 0.7695 0.0000 -0.0000 0.0000 15.7650 -9.1540 -25.5568 -12.4912 20.5372 -2.2717 0.0000 0.0000 7.5591 -21.8631 -16.9564 6.6745 7.1250 -0.0000 -0.0000 5.8251 -48.0802 -0.4441
1.9016 17.9103 -4.3258 1.1100 2.5941 6.1935 0.0000 0.0000 0.0000 -13.0849 -7.5794 -10.8248 2.6705 10.1414 29.4360 0.9026 4.3890 -20.0511 0.2670 -3.3239 -9.1819 0.0000 0.0000 0.0000 8.8580 2.4710 -8.9250 -2.0226 -8.9130 25.5235 -0.5954 -10.9276 -22.3558 -0.0082 -0.5830 1.6020 -3.3863 -0.6994 -2.6367 0.5891 -0.8730 -2.5196 2.4883 -0.3824 -1.0499 -4.9414 -3.7202 -21.8291 4.8443 -4.5604 16.1332 1.8298 -1.9168 8.8599 0.0000 -0.0000 0.0000 -16.3012 2.4026 -26.7825 12.5304 -20.5953 -2.2854 -0.0000 -0.0000 20.7793 15.0970 12.0076 3.2122 -7.1250 0.0000 -0.0000 -10.8632 42.1485 0.7743 0.0000 -0.0000 0.0000 15.7480 -9.1580 -25.6863 -12.4617 20.4934 -2.2613 0.0000 0.0000 7.7372 -21.8496 -16.9036 6.6500 7.1250 -0.0000 -0.0000 5.8254 -48.0227 -0.4358
1.9036 17.9104 -4.3242 1.1110 2.5840 6.1937 0.0000 0.0000 0.0000 -13.0963 -7.5741 -10.8216 2.6718 10.1437 29.4433 0.9029 4.3976 -20.0593 0.2669 -3.3231 -9.1797 0.0000 0.0000 0.0000 8.8499 2.4764 -8.9121 -2.0205 -8.9087 25.5103 -0.5949 -10.9287 -22.3521 -0.0082 -0.5845 1.6062 -3.3915 -0.6922 -2.6378 0.5868 -0.8634 -2.5228 2.4891 -0.3774 -1.0532 -4.9427 -3.7162 -21.8095 4.8398 -4.5551 16.1474 1.8294 -1.9151 8.8610 0.0000 0.0000 0.0000 -16.2922 2.4137 -26.8032 12.5290 -20.5932 -2.2849 -0.0000 -0.0000 20.8009 15.0926 12.0181 3.2140 -7.1250 0.0000 -0.0000 -10.8695 42.1589 0.7719 0.0000 0.0000 0.0000 15.7298 -9.1960 -25.6841 -12.4579 20.4878 -2.2600 0.0000 0.0000 7.7571 -21.8365 -16.9263 6.6542 7.1250 -0.0000 -0.0000 5.8433 -48.0446 -0.4403
1.9056 17.9105 -4.3225 1.1098 2.5712 6.1945 0.0000 0.0000 0.0000 -13.1050 -7.5718 -10.8180 2.6732 10.1461 29.4513 0.9032 4.4106 -20.0696 0.2666 -3.3213 -9.1745 0.0000 0.0000 0.0000 8.8447 2.4868 -8.8979 -2.0182 -8.9040 25.4954 -0.5943 -10.9312 -22.3493 -0.0083 -0.5873 1.6139 -3.3950 -0.6848 -2.6385 0.5854 -0.8535 -2.5273 2.4897 -0.3723 -1.0581 -4.9398 -3.7107 -21.7932 4.8324 -4.5486 16.1669 1.8275 -1.9128 8.8643 0.0000 -0.0000 0.0000 -16.2830 2.4310 -26.8090 12.5305 -20.5954 -2.2855 -0.0000 -0.0000 20.7962 15.0836 12.0349 3.2164 -7.1250 0.0000 -0.0000 -10.8812 42.1749 0.7684 0.0000 -0.0000 0.0000 15.7115 -9.2320 -25.6789 -12.4534 20.4812 -2.2584 0.0000 0.0000 7.7907 -21.8291 -16.9423 6.6578 7.1250 -0.0000 -0.0000 5.8542 -48.0604 -0.4434
1.9074 17.9105 -4.3209 1.1066 2.5572 6.1947 0.0000 0.0000 0.0000 -13.1116 -7.5713 -10.8129 2.6745 10.1486 29.4591 0.9034 4.4250 -20.0806 0.2660 -3.3181 -9.1656 0.0000 0.0000 0.0000 8.8420 2.5000 -8.8825 -2.0159 -8.8991 25.4802 -0.5937 -10.9346 -22.3469 -0.0083 -0.5889 1.6183 -3.3959 -0.6773 -2.6376 0.5844 -0.8436 -2.5329 2.4894 -0.3671 -1.0651 -4.9349 -3.7048 -21.7804 4.8235 -4.5418 16.1924 1.8248 -1.9104 8.8702 0.0000 0.0000 0.0000 -16.2736 2.4524 -26.8022 12.5342 -20.6010 -2.2868 -0.0000 -0.0000 20.7713 15.0706 12.0621 3.2206 -7.1250 0.0000 -0.0000 -10.8989 42.2011 0.7625 0.0000 0.0000 0.0000 15.6937 -9.2703 -25.6508 -12.4520 20.4791 -2.2579 0.0000 0.0000 7.8118 -21.8247 -16.9640 6.6646 7.1250 -0.0000 -0.0000 5.8636 -48.0827 -0.4474
